<svg width="48" height="48" viewBox="0 0 48 48" fill="none" xmlns="http://www.w3.org/2000/svg">
<path d="M47.8298 40.486L43.7088 34.762C41.8056 32.1201 40.7999 29.094 40.7999 26.014V21C40.7999 14.67 35.7309 9.31603 28.7994 7.59V4.00003C28.7994 1.794 26.6465 0 23.9992 0C21.3519 0 19.199 1.794 19.199 4.00003V7.59C12.2676 9.31603 7.19857 14.67 7.19857 21V26.014C7.19857 29.094 6.1929 32.118 4.29202 34.7601L0.1711 40.484C-0.0521086 40.7941 -0.0569462 41.1781 0.1567 41.4921C0.370346 41.806 0.766361 42.0001 1.19838 42.0001H46.8001C47.2321 42.0001 47.6305 41.8061 47.8442 41.4941C48.0578 41.182 48.0506 40.794 47.8298 40.486Z" fill="#1D8A4B"/>
<path d="M16.4419 44C17.7955 46.356 20.6613 48 23.9997 48C27.3382 48 30.204 46.356 31.5576 44H16.4419Z" fill="#1D8A4B"/>
</svg>
