<svg width="240" height="392" viewBox="0 0 240 392" fill="none" xmlns="http://www.w3.org/2000/svg">
<path d="M208.913 187.196C208.913 187.196 213.954 248.089 215.037 261.138C215.779 269.317 217.599 277.361 220.449 285.06C220.449 285.06 222.613 289.409 222.613 293.759V349.214C222.613 349.214 226.943 349.214 225.861 353.563C224.778 357.913 223.696 365.524 223.696 365.524H207.46C207.46 365.524 208.542 362.262 205.295 361.175C202.048 360.087 205.295 351.389 205.295 351.389L187.976 286.147L161.998 231.779C161.998 231.779 146.844 280.71 143.597 286.147C143.597 286.147 131.691 347.039 129.526 352.476C127.361 357.913 126.278 357.913 127.361 360.087C128.443 362.262 128.443 364.437 127.361 365.524C126.278 366.612 105.713 365.524 105.713 365.524L111.125 288.322L120.866 195.896L170.658 180.673L208.913 187.196Z" fill="#2F2E41"/>
<path d="M211.789 356.825C211.789 356.825 217.201 337.253 225.861 352.476C234.52 367.699 234.52 373.136 234.52 373.136C234.52 373.136 248.591 393.796 229.108 391.621C209.624 389.446 213.954 379.66 213.954 379.66C213.954 379.66 206.377 375.31 206.377 372.048C206.377 368.786 211.789 356.825 211.789 356.825Z" fill="#2F2E41"/>
<path d="M124.113 354.651C124.113 354.651 118.701 335.078 110.042 350.301C101.383 365.524 101.383 370.961 101.383 370.961C101.383 370.961 87.3112 391.621 106.795 389.446C126.278 387.271 121.948 377.485 121.948 377.485C121.948 377.485 129.525 373.136 129.525 369.874C129.525 366.612 124.113 354.651 124.113 354.651Z" fill="#2F2E41"/>
<path d="M174.987 40.4037C174.987 40.4037 172.822 54.5394 179.317 57.8014C185.811 61.0635 165.245 73.0245 159.833 73.0245C154.421 73.0245 144.679 62.1509 144.679 62.1509C144.679 62.1509 150.091 45.8405 149.009 42.5784L174.987 40.4037Z" fill="#A0616A"/>
<path d="M163.08 51.2773C150.527 51.2773 140.35 41.0539 140.35 28.4428C140.35 15.8316 150.527 5.60823 163.08 5.60823C175.634 5.60823 185.811 15.8316 185.811 28.4428C185.811 41.0539 175.634 51.2773 163.08 51.2773Z" fill="#A0616A"/>
<path d="M118.702 75.1992L145.761 58.7299C145.761 58.7299 161.157 76.2866 177.814 56.7141L206.377 64.3256L202.048 138.266C202.048 138.266 208.542 167.625 206.377 173.062C204.212 178.498 211.789 180.673 209.624 181.76C207.46 182.848 209.624 190.459 209.624 190.459C209.624 190.459 167.41 212.207 120.866 195.896L125.196 181.76C124.607 179.913 124.496 177.944 124.875 176.042C125.254 174.139 126.11 172.365 127.361 170.887C127.361 170.887 123.031 164.363 128.443 158.926C128.443 158.926 126.279 149.14 131.691 144.79L132.773 129.567L129.526 121.956L118.702 75.1992Z" fill="#CFCCE0"/>
<path d="M174.713 17.8401C174.713 17.8401 177.423 23.7315 166.584 21.3749C166.584 21.3749 162.519 23.7315 162.519 20.1966C162.519 20.1966 157.099 26.0881 155.744 22.5532C154.389 19.0183 151.679 23.7315 151.679 23.7315L148.969 17.8401L146.259 21.3749H136.774C136.774 21.3749 134.064 -2.19093 166.584 0.165656C199.103 2.52225 183.105 39.86 183.105 39.86C183.105 39.86 182.843 33.1579 180.133 36.6927C177.423 40.2276 174.713 17.8401 174.713 17.8401Z" fill="#2F2E41"/>
<path d="M108.96 118.694L107.877 141.528C107.877 141.528 103.548 183.935 112.207 202.42V212.206C112.207 212.206 114.372 237.216 125.196 236.128C136.02 235.041 121.949 200.245 121.949 200.245L124.113 152.402L126.278 125.218L108.96 118.694Z" fill="#A0616A"/>
<path d="M130.608 76.2866L119.81 74.5243C112.032 82.0318 106.734 91.7555 104.63 102.383C101.383 119.781 100.3 123.043 100.3 123.043L126.278 129.567L140.35 102.383L130.608 76.2866Z" fill="#CFCCE0"/>
<path d="M6.28394 63.8773H177.099V149.118H6.28394V63.8773Z" fill="white"/>
<path d="M137.826 121.61H165.254C166.065 121.609 166.868 121.768 167.618 122.079C168.367 122.391 169.048 122.847 169.622 123.423C170.196 123.999 170.651 124.682 170.961 125.435C171.272 126.188 171.432 126.994 171.432 127.809C171.432 128.624 171.272 129.43 170.961 130.183C170.651 130.936 170.196 131.619 169.622 132.195C169.048 132.771 168.367 133.227 167.618 133.539C166.868 133.85 166.065 134.009 165.254 134.009H137.826C137.015 134.009 136.212 133.85 135.462 133.539C134.713 133.227 134.031 132.771 133.458 132.195C132.884 131.619 132.429 130.936 132.118 130.183C131.808 129.43 131.648 128.624 131.648 127.809C131.648 126.994 131.808 126.188 132.118 125.435C132.429 124.682 132.884 123.999 133.458 123.423C134.031 122.847 134.713 122.391 135.462 122.079C136.212 121.768 137.015 121.609 137.826 121.61Z" fill="#00B0FF"/>
<path d="M13.6223 56.1705H167.403C169.192 56.1705 170.963 56.5244 172.616 57.2121C174.269 57.8998 175.77 58.9078 177.035 60.1785C178.3 61.4492 179.304 62.9578 179.988 64.6181C180.673 66.2784 181.025 68.0578 181.025 69.8549V145.122C181.025 148.751 179.59 152.232 177.035 154.799C174.481 157.365 171.016 158.807 167.403 158.807H13.6223C10.0094 158.807 6.54453 157.365 3.98987 154.799C1.4352 152.232 1.52588e-05 148.751 1.52588e-05 145.122V69.8549C0 68.0578 0.352356 66.2784 1.03694 64.6181C1.72151 62.9578 2.72491 61.4492 3.98987 60.1785C5.25481 58.9078 6.75652 57.8998 8.40926 57.2121C10.062 56.5244 11.8334 56.1705 13.6223 56.1705ZM171.208 65.5053C170.904 65.4502 163.703 64.2192 157.74 67.8234C151.778 71.427 149.487 78.3954 149.393 78.69L149.152 79.4414L149.926 79.5793C151.029 79.7524 152.145 79.8348 153.263 79.8255C156.807 79.8936 160.304 79.008 163.393 77.2606C169.356 73.6577 171.646 66.6893 171.74 66.3946L171.981 65.6432L171.208 65.5053ZM137.826 135.386H165.254C167.254 135.386 169.173 134.588 170.588 133.167C172.002 131.746 172.797 129.819 172.797 127.809C172.797 125.799 172.002 123.872 170.588 122.451C169.173 121.03 167.254 120.232 165.254 120.232H137.826C135.826 120.232 133.907 121.03 132.492 122.451C131.078 123.872 130.283 125.799 130.283 127.809C130.283 129.819 131.078 131.746 132.492 133.167C133.907 134.588 135.826 135.386 137.826 135.386ZM13.0284 134.009C13.0347 136.199 13.9037 138.298 15.4454 139.846C16.9872 141.395 19.0764 142.268 21.2568 142.275H41.8278C44.0081 142.268 46.0974 141.395 47.6391 139.846C49.1809 138.298 50.0498 136.199 50.0562 134.009V121.61C50.0498 119.419 49.1809 117.321 47.6391 115.772C46.0974 114.223 44.0081 113.35 41.8278 113.344H21.2568C19.0764 113.35 16.9872 114.223 15.4454 115.772C13.9037 117.321 13.0347 119.419 13.0284 121.61V134.009Z" fill="#00B0FF"/>
<path d="M222.613 105.645C222.613 105.645 232.355 146.965 220.448 146.965C208.542 146.965 180.399 100.208 180.399 100.208C180.399 100.208 151.174 84.9855 163.08 79.5487C174.987 74.1119 190.141 88.2475 190.141 88.2475L207.626 112.635L208.542 100.208L222.613 105.645Z" fill="#A0616A"/>
<path d="M199.883 70.8498L206.377 64.3256C206.377 64.3256 219.366 71.9371 220.449 79.5487C221.531 87.1602 226.943 111.082 226.943 111.082L206.918 112.713L200.424 102.927L199.883 70.8498Z" fill="#CFCCE0"/>
<path d="M158.455 68.6465C162.827 66.0054 168.099 66.2071 170.103 66.4089C169.34 68.2806 167.05 73.0549 162.678 75.6973C158.295 78.3451 153.031 78.1374 151.03 77.937C151.793 76.0659 154.083 71.2896 158.455 68.6465Z" fill="#00B0FF"/>
</svg>
