<svg width="46" height="48" viewBox="0 0 46 48" fill="none" xmlns="http://www.w3.org/2000/svg">
<path d="M39.5 20.25H45.5V9.75H39.5V0.75H26V20.25H29V15H32V20.25H35V30H29.75C29.75 26.2717 26.7283 23.25 23 23.25C19.2717 23.25 16.25 26.2717 16.25 30H12.5V20.25H14H20V9.75H14V0.75H0.5V20.25H3.5V15H6.5V20.25H9.5V30H8.75C7.92125 30 7.25 30.6712 7.25 31.5C7.25 32.3288 7.92125 33 8.75 33H9.5V33.75C9.5 34.5788 10.1713 35.25 11 35.25C11.8287 35.25 12.5 34.5788 12.5 33.75V33H16.25V36H14.75V47.25H30.5V36H29.75V33H35V33.75C35 34.5788 35.6712 35.25 36.5 35.25C37.3288 35.25 38 34.5788 38 33.75V33H38.75C39.5788 33 40.25 32.3288 40.25 31.5C40.25 30.6712 39.5788 30 38.75 30H38V20.25H39.5ZM41.75 12H43.25V13.5H41.75V12ZM41.75 15H43.25V16.5H41.75V15ZM30.5 10.5H29V9H30.5V10.5ZM30.5 7.5H29V6H30.5V7.5ZM30.5 4.5H29V3H30.5V4.5ZM33.5 10.5H32V9H33.5V10.5ZM33.5 7.5H32V6H33.5V7.5ZM33.5 4.5H32V3H33.5V4.5ZM16.25 12H17.75V13.5H16.25V12ZM16.25 15H17.75V16.5H16.25V15ZM5 10.5H3.5V9H5V10.5ZM5 7.5H3.5V6H5V7.5ZM5 4.5H3.5V3H5V4.5ZM8 10.5H6.5V9H8V10.5ZM8 7.5H6.5V6H8V7.5ZM8 4.5H6.5V3H8V4.5ZM9.5 3H11V4.5H9.5V3ZM9.5 6H11V7.5H9.5V6ZM9.5 9H11V10.5H9.5V9ZM23.75 41.7923V45H22.25V41.7923C21.8037 41.5327 21.5 41.0542 21.5 40.5C21.5 39.6712 22.1712 39 23 39C23.8288 39 24.5 39.6712 24.5 40.5C24.5 41.0535 24.1963 41.532 23.75 41.7923ZM26.75 36H19.25V33H20C20.8288 33 21.5 32.3288 21.5 31.5C21.5 30.6712 20.8288 30 20 30H19.25C19.25 27.9293 20.9293 26.25 23 26.25C25.0707 26.25 26.75 27.9293 26.75 30H26C25.1712 30 24.5 30.6712 24.5 31.5C24.5 32.3288 25.1712 33 26 33H26.75V36ZM35 3H36.5V4.5H35V3ZM35 6H36.5V7.5H35V6ZM35 9H36.5V10.5H35V9Z" fill="#1D8A4B"/>
</svg>
