<svg width="48" height="48" viewBox="0 0 48 48" fill="none" xmlns="http://www.w3.org/2000/svg">
<path d="M48 13.0169V17.8983C48 18.4974 47.6418 18.9831 47.2 18.9831H0.8C0.3582 18.9831 0 18.4974 0 17.8983V13.0169C0 12.4179 0.3582 11.9322 0.8 11.9322H47.2C47.6418 11.9322 48 12.4179 48 13.0169ZM48 8.67797V5.42373C48 2.42834 46.2091 0 44 0H4C1.7909 0 0 2.42834 0 5.42373V8.67797C0 9.27702 0.3582 9.76271 0.8 9.76271H47.2C47.6418 9.76271 48 9.27702 48 8.67797ZM38.5406 30.1577C38.0412 30.2803 37.7531 30.9814 37.9321 31.6254C38.2893 32.9108 38.2897 34.3426 37.9318 35.6298C37.7563 36.2609 38.0272 36.9652 38.5158 37.0909C40.033 37.4812 41.4232 36.0027 41.5838 34.0248C41.7763 31.6545 40.2334 29.7424 38.5406 30.1577ZM0.8 21.1525H47.2C47.6418 21.1525 48 21.6382 48 22.2373V42.5763C48 45.5717 46.2091 48 44 48H4C1.7909 48 0 45.5717 0 42.5763V22.2373C0 21.6382 0.3582 21.1525 0.8 21.1525ZM14.8 37.0169C14.8 36.4179 14.4418 35.9322 14 35.9322H7.3C6.8582 35.9322 6.5 36.4179 6.5 37.0169C6.5 37.616 6.8582 38.1017 7.3 38.1017H14C14.4418 38.1017 14.8 37.616 14.8 37.0169ZM14.8 30.2373C14.8 29.6382 14.4418 29.1525 14 29.1525H7.3C6.8582 29.1525 6.5 29.6382 6.5 30.2373C6.5 30.8363 6.8582 31.322 7.3 31.322H14C14.4418 31.322 14.8 30.8363 14.8 30.2373ZM43.2 33.6271C43.2 28.9673 39.2722 26.2736 36.5 29.0541C33.7454 26.2782 29.8 28.9516 29.8 33.6271C29.8 38.3005 33.7438 40.9776 36.5 38.2001C39.2546 40.976 43.2 38.3026 43.2 33.6271Z" fill="#1D8A4B"/>
</svg>
