<svg width="164" height="220" viewBox="0 0 164 220" fill="none" xmlns="http://www.w3.org/2000/svg">
<path d="M110.885 17.0427C101.326 0.817356 82.4145 0.061207 82.4145 0.061207C82.4145 0.061207 63.9863 -2.30616 52.1647 22.4053C41.146 45.4384 25.9388 67.6774 49.7165 73.0693L54.0114 59.6405L56.6712 74.069C60.0567 74.3136 63.453 74.372 66.8448 74.2437C92.3087 73.4178 116.559 74.4853 115.778 65.3061C114.74 53.1035 120.083 32.6548 110.885 17.0427Z" fill="#2F2E41"/>
<path d="M48.3587 159.136C48.078 160.921 47.6705 162.683 47.1394 164.409C46.5412 166.099 45.6177 167.662 45.0708 169.369C43.3274 174.81 45.7443 180.877 49.6042 185.078C52.9516 188.705 57.2723 191.283 62.0453 192.499C65.5593 193.254 69.1432 193.633 72.7368 193.628C82.6738 193.966 92.8665 194.269 102.282 191.061C105.257 190.022 108.131 188.711 110.866 187.143C111.73 186.73 112.491 186.128 113.094 185.382C113.724 184.288 114.005 183.026 113.897 181.767C113.876 177.536 113.022 173.325 113.225 169.098C113.337 166.757 113.773 164.418 113.559 162.084C113.262 159.433 112.156 156.939 110.394 154.943C108.631 152.948 106.298 151.548 103.714 150.936C101.009 150.517 98.2569 150.517 95.5526 150.937C88.4937 151.618 81.4047 151.936 74.3134 151.891C67.0679 151.844 59.8672 150.733 52.6578 150.617C50.5257 150.583 50.5688 151.243 49.89 153.316C49.2648 155.224 48.7534 157.167 48.3587 159.136Z" fill="#2F2E41"/>
<path d="M68.9209 54.6429C68.7053 56.5012 68.0837 58.2888 67.1007 59.8779C65.8402 61.6095 63.785 62.5989 62.4289 64.2561C60.3878 66.7506 60.2706 70.2607 60.2622 73.4898C60.2545 76.4644 60.3146 79.6372 61.9659 82.1064C63.1412 83.6403 64.5998 84.9321 66.262 85.9113C72.4546 90.1036 79.1464 94.3712 86.6127 94.5095C89.7063 94.5668 93.0233 93.7642 95.0589 91.4233C95.9377 90.3237 96.6288 89.0852 97.1038 87.7583C99.0129 83.0307 100.17 78.0311 100.533 72.9424C100.808 70.5501 100.586 68.1266 99.8804 65.8251C98.9733 63.2846 97.1393 61.1943 95.9272 58.7857C94.4943 55.9216 93.9703 52.685 94.4257 49.5123C94.486 49.2889 94.4673 49.0514 94.3729 48.8402C94.2732 48.7272 94.1489 48.6389 94.0096 48.5822C93.8702 48.5255 93.7198 48.5019 93.5699 48.5134L78.7653 47.4427C77.3865 47.3739 76.0135 47.2161 74.6549 46.9703C73.8568 46.8073 71.7489 45.6687 70.9879 45.9715C69.5793 46.5319 69.2096 53.1241 68.9209 54.6429Z" fill="#FFB8B8"/>
<path opacity="0.1" d="M68.9209 54.6429C68.7053 56.5012 68.0837 58.2888 67.1007 59.8779C65.8402 61.6095 63.785 62.5989 62.4289 64.2561C60.3878 66.7506 60.2706 70.2607 60.2622 73.4898C60.2545 76.4644 60.3146 79.6372 61.9659 82.1064C63.1412 83.6403 64.5998 84.9321 66.262 85.9113C72.4546 90.1036 79.1464 94.3712 86.6127 94.5095C89.7063 94.5668 93.0233 93.7642 95.0589 91.4233C95.9377 90.3237 96.6288 89.0852 97.1038 87.7583C99.0129 83.0307 100.17 78.0311 100.533 72.9424C100.808 70.5501 100.586 68.1266 99.8804 65.8251C98.9733 63.2846 97.1393 61.1943 95.9272 58.7857C94.4943 55.9216 93.9703 52.685 94.4257 49.5123C94.486 49.2889 94.4673 49.0514 94.3729 48.8402C94.2732 48.7272 94.1489 48.6389 94.0096 48.5822C93.8702 48.5255 93.7198 48.5019 93.5699 48.5134L78.7653 47.4427C77.3865 47.3739 76.0135 47.2161 74.6549 46.9703C73.8568 46.8073 71.7489 45.6687 70.9879 45.9715C69.5793 46.5319 69.2096 53.1241 68.9209 54.6429Z" fill="black"/>
<path d="M83.0789 56.6371C95.0746 56.6371 104.799 46.8683 104.799 34.8179C104.799 22.7674 95.0746 12.9986 83.0789 12.9986C71.0833 12.9986 61.3589 22.7674 61.3589 34.8179C61.3589 46.8683 71.0833 56.6371 83.0789 56.6371Z" fill="#FFB8B8"/>
<path d="M71.9675 83.6876C73.0405 84.9358 74.3339 85.974 75.7826 86.75C77.2928 87.377 78.9147 87.6872 80.5486 87.6616C84.4638 87.7722 88.7082 87.0515 91.4319 84.2239C94.9428 80.5789 94.8271 74.6999 97.5791 70.4475C97.8008 70.062 98.1034 69.7296 98.4659 69.4733C98.9275 69.2208 99.4491 69.1003 99.9741 69.1249C103.45 69.0923 106.477 71.3568 109.21 73.5148C110.496 74.4039 111.599 75.5333 112.46 76.8414C113.001 77.9004 113.371 79.0386 113.557 80.2138C114.761 86.895 115.506 93.6513 115.788 100.435C116.028 104.176 116.269 107.921 116.251 111.67C116.192 124.021 113.335 136.166 110.493 148.183C110.127 149.731 109.626 151.462 108.224 152.204C107.599 152.486 106.928 152.651 106.244 152.689C98.1201 153.788 89.946 154.472 81.7532 154.738C78.5553 154.787 75.3587 154.71 72.1636 154.505C71.6135 154.497 71.0682 154.402 70.5481 154.222C69.8423 153.881 69.2358 153.364 68.787 152.719C64.3544 147.108 64.0928 139.351 64.1211 132.187C64.1904 114.674 64.8133 97.1745 65.9898 79.689C66.0869 78.2457 66.1082 76.493 65.073 75.3576C67.0886 78.3585 69.3983 81.1491 71.9675 83.6876Z" fill="#D0CDE1"/>
<path d="M67.3665 58.4941C66.633 59.8281 61.2246 63.1405 60.1805 64.2461C54.3467 70.4234 43.6991 70.1916 38.3637 76.8079C36.5956 79.2341 35.3773 82.0194 34.794 84.9685C33.7795 89.0812 33.2378 93.5664 34.9373 97.4443C36.5725 101.176 40.0149 103.755 42.3521 107.088C44.9183 110.748 46.072 115.192 47.1778 119.528C47.9942 122.73 48.8174 126.011 48.4994 129.301C48.1379 133.042 46.3361 136.466 45.2723 140.069C44.2085 143.672 44.0249 147.963 46.4846 150.795C48.2917 152.875 51.1262 153.7 53.8354 154.163C57.3055 154.687 60.8047 154.993 64.3127 155.08C67.4097 155.217 70.8236 155.244 73.2044 153.249C74.0956 152.404 74.8042 151.383 75.286 150.251C75.7678 149.118 76.0127 147.898 76.0053 146.667C75.9763 144.209 75.7349 141.758 75.284 139.342C74.9539 136.816 74.827 134.269 74.7208 131.724C74.2445 120.304 74.1795 108.877 74.5258 97.4428C74.7003 95.0663 74.5843 92.6773 74.1804 90.3292C73.5162 87.2704 71.8706 84.5369 70.4975 81.7265C67.7533 76.4332 66.5103 70.484 66.9045 64.5291C67.3203 58.4094 69.9769 53.7471 67.3665 58.4941Z" fill="#00B0FF"/>
<path d="M97.8668 58.9583C98.9842 60.112 102.781 60.4923 104.202 61.2352C105.539 61.8557 106.934 62.3409 108.367 62.6838C113.552 64.1864 118.483 66.4601 122.998 69.4295C123.936 69.9808 124.765 70.7004 125.445 71.5525C126.16 72.7221 126.622 74.0306 126.798 75.392C127.634 78.8278 128.05 82.3531 128.037 85.8899C127.871 89.6366 126.748 93.2652 125.633 96.8446L121.469 110.219C118.36 120.202 115.232 130.283 114.358 140.706C113.874 146.483 114.089 152.297 114.998 158.022C115.084 158.301 115.109 158.594 115.073 158.883C115.037 159.173 114.94 159.451 114.788 159.699C114.514 159.972 114.153 160.139 113.768 160.171C111.759 160.486 109.813 159.457 107.992 158.546C102.427 155.763 96.4865 153.811 90.3599 152.75C92.754 149.274 94.6012 145.449 95.8365 141.409C96.5381 138.843 97.0905 136.239 97.4911 133.609L99.4284 122.353C100.217 118.239 100.771 114.084 101.09 109.907C101.237 108.339 101.146 106.758 100.821 105.218C100.374 103.752 99.7813 102.335 99.0512 100.99C95.8586 94.3182 94.3606 86.705 95.6168 79.4111C96.1665 76.2191 97.2348 73.0228 96.7894 69.8144C96.3611 66.7296 96.8062 64.3322 96.0183 61.2795C92.7834 48.745 95.7646 56.7879 97.8668 58.9583Z" fill="#00B0FF"/>
<path d="M38.3086 87.3558C36.8531 90.39 34.4198 92.9747 33.5915 96.2384C33.2693 97.7637 33.1312 99.3225 33.1803 100.881C33.0366 103.23 33.268 105.587 33.8658 107.862C34.3281 109.301 35.0801 110.628 35.6219 112.039C36.3771 114.011 36.7135 116.119 36.6096 118.228C36.4634 121.151 35.4751 123.988 35.3978 126.913C35.2764 131.514 37.3945 135.838 39.4612 139.945C39.9814 138.651 40.7768 137.487 41.7917 136.534C42.8066 135.581 44.0165 134.862 45.3368 134.428C46.6572 133.994 48.056 133.854 49.4355 134.02C50.8149 134.185 52.1417 134.652 53.323 135.386C53.7964 134.802 54.0209 134.054 53.9478 133.305C54.1006 127.968 54.2479 122.63 54.3899 117.293C54.6136 109.039 54.8267 100.674 52.9365 92.6374C52.2263 88.9606 50.6428 85.5105 48.3207 82.5803C47.0388 81.0985 42.6873 77.1952 40.5831 78.8552C39.6368 79.6018 39.858 81.6339 39.7081 82.663C39.4817 84.2896 39.0099 85.8721 38.3086 87.3558Z" fill="#00B0FF"/>
<path d="M128.463 78.6122C129.049 80.8001 129.299 83.0648 129.206 85.3285C129.234 89.9422 129.174 94.5552 129.024 99.1677C129.047 101.533 128.746 103.891 128.129 106.174C127.659 107.659 126.933 109.052 126.448 110.531C124.993 114.966 125.788 119.776 125.913 124.444C126.001 125.955 125.873 127.47 125.532 128.945C124.764 131.838 122.701 134.176 121.261 136.798C119.893 139.289 119.068 142.08 117.434 144.403C115.801 146.726 112.973 148.567 110.233 147.854C108.156 147.313 106.68 145.467 105.66 143.572C103.433 139.404 102.671 134.603 103.498 129.947C104.523 124.282 107.835 119.256 109.03 113.624C110.671 105.891 108.177 97.9102 108.251 90.0033C108.218 88.7639 108.385 87.5272 108.747 86.3418C109.517 84.5879 110.608 82.9947 111.963 81.645C113.516 79.8348 114.96 77.932 116.285 75.9468C117.175 74.6133 118.384 71.1834 119.962 70.8982C123.485 70.2615 127.589 75.8777 128.463 78.6122Z" fill="#00B0FF"/>
<path d="M20.0264 155.697C18.078 155.205 16.0705 154.991 14.0628 155.06C11.9533 155.177 9.89269 155.744 8.01817 156.723C6.14365 157.702 4.49809 159.071 3.19091 160.738C1.88373 162.406 0.944885 164.334 0.436799 166.394C-0.0712866 168.454 -0.136941 170.599 0.244149 172.686C0.730663 174.948 1.52584 177.131 2.60721 179.173C4.18877 182.398 6.08565 185.615 9.01354 187.681C10.7776 188.817 12.6772 189.725 14.6673 190.384L30.0879 196.22C32.3565 197.079 34.6254 197.937 36.9164 198.733C48.4261 202.73 60.4259 205.126 72.5822 205.856C76.2812 206.204 80.0109 206.014 83.656 205.292C84.5371 205.177 85.3448 204.738 85.9239 204.061C86.2178 203.547 86.3911 202.972 86.4306 202.38L87.3795 195.707C87.5919 194.778 87.5641 193.809 87.2988 192.894C86.7407 191.818 85.8376 190.963 84.7357 190.467C74.5977 184.618 62.7603 181.391 54.2271 173.363C52.2182 171.473 50.5371 168.477 48.0964 167.193C45.3286 165.737 42.069 164.906 39.2081 163.565C32.9539 160.632 26.8048 157.262 20.0264 155.697Z" fill="#2F2E41"/>
<path opacity="0.1" d="M35.4215 164.693C40.8721 166.409 63.8842 178.296 67.8286 182.446C67.2999 182.637 49.3614 172.538 48.8232 172.376C43.8892 171.015 39.0574 169.304 34.364 167.257C33.4292 166.823 28.2913 164.782 28.524 163.597C28.7866 162.26 34.4539 164.389 35.4215 164.693Z" fill="black"/>
<path d="M103.42 209.317C103.73 209.34 104.037 209.249 104.284 209.061C104.393 208.921 104.473 208.761 104.519 208.589C104.566 208.418 104.578 208.239 104.555 208.063L104.529 198.971C101.861 197.863 99.0365 197.178 96.1584 196.943L82.8266 195.153C83.1329 195.194 80.7421 200.921 81.1086 201.685C81.7548 203.033 86.6925 204.227 88.086 204.864C92.9304 207.076 97.9643 209.507 103.42 209.317Z" fill="#FFB8B8"/>
<path d="M61.5925 198.94C59.0753 199.342 56.2659 199.699 54.6357 201.667C52.5685 204.163 53.4485 207.884 54.4346 210.977C54.4948 211.376 54.6339 211.759 54.844 212.103C55.054 212.447 55.3306 212.745 55.6575 212.98C55.9843 213.215 56.3547 213.382 56.7467 213.47C57.1388 213.559 57.5445 213.567 57.9399 213.495C60.2356 213.641 62.6785 213.756 64.6843 212.625C65.5928 212.021 66.4674 211.368 67.3042 210.668C68.7833 209.68 70.4092 208.933 72.1212 208.456C75.2684 207.462 78.5081 206.791 81.7903 206.454C83.0836 206.395 84.3639 206.168 85.5993 205.78C86.2165 205.58 86.7795 205.24 87.2447 204.786C87.7099 204.333 88.0648 203.777 88.2818 203.163C88.7465 201.511 87.7906 199.827 86.8738 198.378C85.8175 196.48 84.4463 194.778 82.8193 193.344C80.3351 191.405 79.1063 192.893 76.6041 194.134C71.868 196.482 66.8077 198.102 61.5925 198.94Z" fill="#FFB8B8"/>
<path d="M55.014 201.218L39.031 196.472C37.1139 195.801 35.1108 195.411 33.0831 195.314C32.0679 195.272 31.0555 195.449 30.1135 195.831C29.1716 196.214 28.3217 196.794 27.6209 197.533C26.3815 198.994 26.0268 200.992 25.7178 202.886L25.0568 206.938C24.6161 208.981 24.4913 211.08 24.6868 213.162C24.7932 214.203 25.1345 215.205 25.6847 216.094C26.2349 216.982 26.9795 217.733 27.862 218.289C30.0737 219.501 32.7845 218.909 35.2529 218.402C40.2389 217.378 45.3104 216.832 50.3992 216.77C52.3123 216.747 54.3189 216.771 56.0093 215.871C56.9906 215.287 57.8149 214.47 58.4106 213.493C59.0063 212.516 59.3555 211.408 59.4277 210.264C59.7422 206.802 58.5936 202.28 55.014 201.218Z" fill="#2F2E41"/>
<path d="M109.703 197.082C111.775 196.717 113.604 195.534 115.589 194.836C118.384 193.853 121.412 193.853 124.373 193.864C125.462 193.764 126.556 193.984 127.522 194.498C128.826 195.37 129.161 197.115 129.382 198.673L130.72 208.074C131.078 209.828 131.115 211.633 130.83 213.4C130.675 214.282 130.288 215.107 129.708 215.787C129.128 216.468 128.378 216.98 127.534 217.271C125.444 217.817 123.395 216.475 121.422 215.594C116.49 213.392 110.756 213.955 105.614 212.309C105.122 212.21 104.657 212.008 104.249 211.715C103.841 211.422 103.5 211.045 103.248 210.61C103.072 210.088 103.009 209.534 103.064 208.985C103.152 205.964 102.517 201.837 103.423 198.95C104.237 196.352 107.39 197.082 109.703 197.082Z" fill="#2F2E41"/>
<path d="M143.527 151.913C146.721 151.109 150.031 150.881 153.304 151.242C155.918 151.531 158.611 152.262 160.519 154.079C162.842 156.292 163.588 159.713 163.651 162.927C163.753 169.33 161.639 175.57 157.67 180.581C156.701 181.848 155.548 182.963 154.251 183.888C152.851 184.767 151.359 185.489 149.802 186.041L115.268 199.725C106.183 203.324 97.0657 206.935 87.5895 209.308C87.3304 209.433 87.0489 209.506 86.7616 209.52C86.4743 209.535 86.1869 209.492 85.9165 209.393C85.646 209.295 85.3979 209.143 85.1867 208.947C84.9755 208.751 84.8056 208.514 84.6868 208.251C81.6611 203.909 79.1227 199.244 77.118 194.342C77.0231 194.225 76.9575 194.088 76.9268 193.94C76.8961 193.793 76.9012 193.64 76.9416 193.495C76.9821 193.35 77.0567 193.217 77.1592 193.107C77.2616 192.998 77.389 192.914 77.5304 192.864L101.956 178.766C103.747 177.827 105.417 176.671 106.928 175.324C107.984 174.297 108.848 173.088 109.48 171.755C109.987 170.692 110.034 168.185 110.681 167.4C111.314 166.631 113.48 166.57 114.48 166.268C115.891 165.833 117.273 165.309 118.617 164.697C124.081 162.241 128.946 158.673 134.184 155.798C137.122 154.111 140.261 152.805 143.527 151.913Z" fill="#2F2E41"/>
<path opacity="0.1" d="M129.68 162.442C125.483 165.608 120.049 168.519 115.89 171.768C114.471 172.877 90.8077 186.242 90.4731 188.017C94.3534 188.673 119.071 171.303 122.607 169.569C126.085 167.712 129.361 165.499 132.385 162.965C133.177 162.347 136.532 160.488 134.259 159.797C132.979 159.408 130.625 161.809 129.68 162.442Z" fill="black"/>
<path d="M106.659 15.4783L87.975 5.64722L62.1735 9.66908L56.8357 33.354L70.1237 32.8404L73.8361 24.1387V32.697L79.9679 32.4598L83.5264 18.6069L85.7508 33.354L107.549 32.907L106.659 15.4783Z" fill="#2F2E41"/>
<path d="M102.488 64.0649H62.2832V112.81H102.488V64.0649Z" fill="#3F3D56"/>
<path d="M43.1969 148.845C44.0422 150.289 45.2433 151.489 46.6844 152.331C47.6299 152.765 48.6615 152.976 49.7006 152.948C50.7396 152.92 51.7586 152.653 52.6796 152.169C54.519 151.179 56.0246 149.662 57.0061 147.812C59.0366 144.21 59.4571 139.9 59.2037 135.768C58.9504 131.636 58.0722 127.568 57.6835 123.447C57.401 120.451 57.378 117.437 57.3553 114.428C57.2851 113.796 57.4172 113.157 57.7325 112.605C58.2754 112.062 58.9777 111.71 59.7355 111.6C63.8336 110.377 66.5538 106.518 68.5039 102.696C69.8061 100.144 70.9385 97.3545 70.6874 94.498C70.4363 91.6414 68.3923 88.7636 65.5524 88.4722C63.2112 88.232 61.0493 89.7258 59.3605 91.3724C55.1001 95.552 52.3621 101.049 51.5863 106.98C51.2155 109.885 51.3217 112.868 50.5353 115.688C48.8562 121.708 43.6025 125.4 40.9843 130.817C38.0995 136.787 39.6917 143.564 43.1969 148.845Z" fill="#FFB8B8"/>
<path d="M120.508 125.844C119.91 127.24 119.04 128.502 117.949 129.555C116.858 130.608 115.569 131.431 114.156 131.975C112.4 132.684 110.463 132.803 108.634 132.315C107.727 132.062 106.891 131.603 106.189 130.972C105.488 130.342 104.94 129.558 104.589 128.68C104.31 127.797 104.156 126.877 104.134 125.95C103.871 121.89 103.972 117.707 105.441 113.915C106.007 112.452 106.77 111.065 107.217 109.561C107.656 107.825 107.881 106.04 107.886 104.249L108.369 93.1708C108.448 92.3665 108.393 91.5545 108.205 90.7688C107.723 89.1659 106.232 88.1242 104.864 87.1683C101.559 84.8598 98.2939 82.1659 96.6926 78.4563C96.1425 77.3393 95.9455 76.0802 96.128 74.8476C96.5795 72.6478 98.7893 71.2238 100.973 70.744C102.403 70.4301 103.88 70.41 105.317 70.6851C106.754 70.9601 108.121 71.5245 109.335 72.3443C110.549 73.1642 111.586 74.2224 112.382 75.4552C113.178 76.6881 113.717 78.0702 113.968 79.5181C114.184 80.7682 114.181 82.0452 114.307 83.3077C114.576 85.9857 115.422 88.5672 115.951 91.2057C117.255 97.7049 116.58 104.423 117.869 110.921C118.948 116.354 123.013 119.899 120.508 125.844Z" fill="#FFB8B8"/>
<path d="M83.4164 87.9716C87.0234 87.9716 89.9474 85.0342 89.9474 81.4107C89.9474 77.7872 87.0234 74.8498 83.4164 74.8498C79.8093 74.8498 76.8853 77.7872 76.8853 81.4107C76.8853 85.0342 79.8093 87.9716 83.4164 87.9716Z" fill="#00B0FF"/>
</svg>
